<svg aria-roledescription="er" viewBox="0 0 491.522705078125 298" style="max-width: 491.523px; background-color: white;" xmlns:xlink="http://www.w3.org/1999/xlink" xmlns="http://www.w3.org/2000/svg" width="100%" id="mermaid-0"><style>#mermaid-0{font-family:"trebuchet ms",verdana,arial,sans-serif;font-size:16px;fill:#000000;}#mermaid-0 .error-icon{fill:#552222;}#mermaid-0 .error-text{fill:#552222;stroke:#552222;}#mermaid-0 .edge-thickness-normal{stroke-width:2px;}#mermaid-0 .edge-thickness-thick{stroke-width:3.5px;}#mermaid-0 .edge-pattern-solid{stroke-dasharray:0;}#mermaid-0 .edge-pattern-dashed{stroke-dasharray:3;}#mermaid-0 .edge-pattern-dotted{stroke-dasharray:2;}#mermaid-0 .marker{fill:#000000;stroke:#000000;}#mermaid-0 .marker.cross{stroke:#000000;}#mermaid-0 svg{font-family:"trebuchet ms",verdana,arial,sans-serif;font-size:16px;}#mermaid-0 .entityBox{fill:#cde498;stroke:#13540c;}#mermaid-0 .attributeBoxOdd{fill:#ffffff;stroke:#13540c;}#mermaid-0 .attributeBoxEven{fill:#f2f2f2;stroke:#13540c;}#mermaid-0 .relationshipLabelBox{fill:hsl(78.1578947368, 58.4615384615%, 84.5098039216%);opacity:0.7;background-color:hsl(78.1578947368, 58.4615384615%, 84.5098039216%);}#mermaid-0 .relationshipLabelBox rect{opacity:0.5;}#mermaid-0 .relationshipLine{stroke:#000000;}#mermaid-0 .entityTitleText{text-anchor:middle;font-size:18px;fill:#000000;}#mermaid-0 :root{--mermaid-font-family:"trebuchet ms",verdana,arial,sans-serif;}</style><g/><defs><marker orient="auto" markerHeight="18" markerWidth="18" refY="9" refX="0" id="ONLY_ONE_START"><path d="M9,0 L9,18 M15,0 L15,18" fill="none" stroke="gray"/></marker></defs><defs><marker orient="auto" markerHeight="18" markerWidth="18" refY="9" refX="18" id="ONLY_ONE_END"><path d="M3,0 L3,18 M9,0 L9,18" fill="none" stroke="gray"/></marker></defs><defs><marker orient="auto" markerHeight="18" markerWidth="30" refY="9" refX="0" id="ZERO_OR_ONE_START"><circle r="6" cy="9" cx="21" fill="white" stroke="gray"/><path d="M9,0 L9,18" fill="none" stroke="gray"/></marker></defs><defs><marker orient="auto" markerHeight="18" markerWidth="30" refY="9" refX="30" id="ZERO_OR_ONE_END"><circle r="6" cy="9" cx="9" fill="white" stroke="gray"/><path d="M21,0 L21,18" fill="none" stroke="gray"/></marker></defs><defs><marker orient="auto" markerHeight="36" markerWidth="45" refY="18" refX="18" id="ONE_OR_MORE_START"><path d="M0,18 Q 18,0 36,18 Q 18,36 0,18 M42,9 L42,27" fill="none" stroke="gray"/></marker></defs><defs><marker orient="auto" markerHeight="36" markerWidth="45" refY="18" refX="27" id="ONE_OR_MORE_END"><path d="M3,9 L3,27 M9,18 Q27,0 45,18 Q27,36 9,18" fill="none" stroke="gray"/></marker></defs><defs><marker orient="auto" markerHeight="36" markerWidth="57" refY="18" refX="18" id="ZERO_OR_MORE_START"><circle r="6" cy="18" cx="48" fill="white" stroke="gray"/><path d="M0,18 Q18,0 36,18 Q18,36 0,18" fill="none" stroke="gray"/></marker></defs><defs><marker orient="auto" markerHeight="36" markerWidth="57" refY="18" refX="39" id="ZERO_OR_MORE_END"><circle r="6" cy="18" cx="9" fill="white" stroke="gray"/><path d="M21,18 Q39,0 57,18 Q39,36 21,18" fill="none" stroke="gray"/></marker></defs><path style="stroke: gray; fill: none;" marker-start="url(#ZERO_OR_MORE_START)" marker-end="url(#ONLY_ONE_END)" d="M91.7841796875,88L91.7841796875,96.33333333333333C91.7841796875,104.66666666666667,91.7841796875,121.33333333333333,96.1701445997807,138C100.55610951206141,154.66666666666666,109.32803933662281,171.33333333333334,113.7140042489035,179.66666666666666L118.0999691611842,188" class="er relationshipLine"/><path style="stroke: gray; fill: none;" marker-start="url(#ZERO_OR_MORE_START)" marker-end="url(#ONLY_ONE_END)" d="M381.27864910307386,77L387.3302364046611,87.16666666666667C393.38182370624844,97.33333333333333,405.484998309423,117.66666666666667,411.53658561101037,138C417.58817291259766,158.33333333333334,417.58817291259766,178.66666666666666,417.58817291259766,188.83333333333334L417.58817291259766,199" class="er relationshipLine"/><path style="stroke: gray; fill: none;" marker-start="url(#ZERO_OR_MORE_START)" marker-end="url(#ONLY_ONE_END)" d="M337.08667727879117,77L323.604132107326,87.16666666666667C310.12158693586076,97.33333333333333,283.1564965929304,117.66666666666667,259.63822979317575,136.16666666666666C236.11996299342104,154.66666666666666,216.04851973684208,171.33333333333334,206.0127981085526,179.66666666666666L195.97707648026315,188" class="er relationshipLine"/><g transform="translate(72.9251708984375,188 )" id="entity-tblhabits-49056d72-b806-489d-8b55-51dff0a9351b"><rect height="90" width="137.718017578125" y="0" x="0" class="er entityBox"/><text style="dominant-baseline: middle; text-anchor: middle; font-size: 12px;" transform="translate(68.8590087890625,12)" y="0" x="0" id="text-entity-tblhabits-49056d72-b806-489d-8b55-51dff0a9351b" class="er entityLabel">tbl_habits</text><rect height="22" width="54.095550537109375" y="24" x="0" class="er attributeBoxOdd"/><text style="dominant-baseline: middle; font-size: 10.2px;" transform="translate(5,35)" y="0" x="0" id="text-entity-tblhabits-49056d72-b806-489d-8b55-51dff0a9351b-attr-1-type" class="er entityLabel">String</text><rect height="22" width="60.934783935546875" y="24" x="54.095550537109375" class="er attributeBoxOdd"/><text style="dominant-baseline: middle; font-size: 10.2px;" transform="translate(59.095550537109375,35)" y="0" x="0" id="text-entity-tblhabits-49056d72-b806-489d-8b55-51dff0a9351b-attr-1-name" class="er entityLabel">id</text><rect height="22" width="22.68768310546875" y="24" x="115.03033447265625" class="er attributeBoxOdd"/><text style="dominant-baseline: middle; font-size: 10.2px;" transform="translate(120.03033447265625,35)" y="0" x="0" id="text-entity-tblhabits-49056d72-b806-489d-8b55-51dff0a9351b-attr-1-key" class="er entityLabel">PK</text><rect height="22" width="54.095550537109375" y="46" x="0" class="er attributeBoxEven"/><text style="dominant-baseline: middle; font-size: 10.2px;" transform="translate(5,57)" y="0" x="0" id="text-entity-tblhabits-49056d72-b806-489d-8b55-51dff0a9351b-attr-2-type" class="er entityLabel">String</text><rect height="22" width="60.934783935546875" y="46" x="54.095550537109375" class="er attributeBoxEven"/><text style="dominant-baseline: middle; font-size: 10.2px;" transform="translate(59.095550537109375,57)" y="0" x="0" id="text-entity-tblhabits-49056d72-b806-489d-8b55-51dff0a9351b-attr-2-name" class="er entityLabel">title</text><rect height="22" width="22.68768310546875" y="46" x="115.03033447265625" class="er attributeBoxEven"/><text style="dominant-baseline: middle; font-size: 10.2px;" transform="translate(120.03033447265625,57)" y="0" x="0" id="text-entity-tblhabits-49056d72-b806-489d-8b55-51dff0a9351b-attr-2-key" class="er entityLabel"/><rect height="22" width="54.095550537109375" y="68" x="0" class="er attributeBoxOdd"/><text style="dominant-baseline: middle; font-size: 10.2px;" transform="translate(5,79)" y="0" x="0" id="text-entity-tblhabits-49056d72-b806-489d-8b55-51dff0a9351b-attr-3-type" class="er entityLabel">DateTime</text><rect height="22" width="60.934783935546875" y="68" x="54.095550537109375" class="er attributeBoxOdd"/><text style="dominant-baseline: middle; font-size: 10.2px;" transform="translate(59.095550537109375,79)" y="0" x="0" id="text-entity-tblhabits-49056d72-b806-489d-8b55-51dff0a9351b-attr-3-name" class="er entityLabel">created_at</text><rect height="22" width="22.68768310546875" y="68" x="115.03033447265625" class="er attributeBoxOdd"/><text style="dominant-baseline: middle; font-size: 10.2px;" transform="translate(120.03033447265625,79)" y="0" x="0" id="text-entity-tblhabits-49056d72-b806-489d-8b55-51dff0a9351b-attr-3-key" class="er entityLabel"/></g><g transform="translate(20,20 )" id="entity-tblhabitweekdays-815c89f8-3af9-44d8-9667-2db6ae265047"><rect height="68" width="143.568359375" y="0" x="0" class="er entityBox"/><text style="dominant-baseline: middle; text-anchor: middle; font-size: 12px;" transform="translate(71.7841796875,12)" y="0" x="0" id="text-entity-tblhabitweekdays-815c89f8-3af9-44d8-9667-2db6ae265047" class="er entityLabel">tbl_habit_week_days</text><rect height="22" width="46.1402333577474" y="24" x="0" class="er attributeBoxOdd"/><text style="dominant-baseline: middle; font-size: 10.2px;" transform="translate(5,35)" y="0" x="0" id="text-entity-tblhabitweekdays-815c89f8-3af9-44d8-9667-2db6ae265047-attr-1-type" class="er entityLabel">String</text><rect height="22" width="65.9962666829427" y="24" x="46.1402333577474" class="er attributeBoxOdd"/><text style="dominant-baseline: middle; font-size: 10.2px;" transform="translate(51.1402333577474,35)" y="0" x="0" id="text-entity-tblhabitweekdays-815c89f8-3af9-44d8-9667-2db6ae265047-attr-1-name" class="er entityLabel">id</text><rect height="22" width="31.431859334309898" y="24" x="112.1365000406901" class="er attributeBoxOdd"/><text style="dominant-baseline: middle; font-size: 10.2px;" transform="translate(117.1365000406901,35)" y="0" x="0" id="text-entity-tblhabitweekdays-815c89f8-3af9-44d8-9667-2db6ae265047-attr-1-key" class="er entityLabel">PK</text><rect height="22" width="46.1402333577474" y="46" x="0" class="er attributeBoxEven"/><text style="dominant-baseline: middle; font-size: 10.2px;" transform="translate(5,57)" y="0" x="0" id="text-entity-tblhabitweekdays-815c89f8-3af9-44d8-9667-2db6ae265047-attr-2-type" class="er entityLabel">Int</text><rect height="22" width="65.9962666829427" y="46" x="46.1402333577474" class="er attributeBoxEven"/><text style="dominant-baseline: middle; font-size: 10.2px;" transform="translate(51.1402333577474,57)" y="0" x="0" id="text-entity-tblhabitweekdays-815c89f8-3af9-44d8-9667-2db6ae265047-attr-2-name" class="er entityLabel">week_day</text><rect height="22" width="31.431859334309898" y="46" x="112.1365000406901" class="er attributeBoxEven"/><text style="dominant-baseline: middle; font-size: 10.2px;" transform="translate(117.1365000406901,57)" y="0" x="0" id="text-entity-tblhabitweekdays-815c89f8-3af9-44d8-9667-2db6ae265047-attr-2-key" class="er entityLabel"/></g><g transform="translate(363.65364837646484,199 )" id="entity-tbldays-4fadbc5d-6ecb-4949-9011-2c0fd7af3bc9"><rect height="68" width="107.86904907226562" y="0" x="0" class="er entityBox"/><text style="dominant-baseline: middle; text-anchor: middle; font-size: 12px;" transform="translate(53.93452453613281,12)" y="0" x="0" id="text-entity-tbldays-4fadbc5d-6ecb-4949-9011-2c0fd7af3bc9" class="er entityLabel">tbl_days</text><rect height="22" width="54.095550537109375" y="24" x="0" class="er attributeBoxOdd"/><text style="dominant-baseline: middle; font-size: 10.2px;" transform="translate(5,35)" y="0" x="0" id="text-entity-tbldays-4fadbc5d-6ecb-4949-9011-2c0fd7af3bc9-attr-1-type" class="er entityLabel">String</text><rect height="22" width="31.0858154296875" y="24" x="54.095550537109375" class="er attributeBoxOdd"/><text style="dominant-baseline: middle; font-size: 10.2px;" transform="translate(59.095550537109375,35)" y="0" x="0" id="text-entity-tbldays-4fadbc5d-6ecb-4949-9011-2c0fd7af3bc9-attr-1-name" class="er entityLabel">id</text><rect height="22" width="22.68768310546875" y="24" x="85.18136596679688" class="er attributeBoxOdd"/><text style="dominant-baseline: middle; font-size: 10.2px;" transform="translate(90.18136596679688,35)" y="0" x="0" id="text-entity-tbldays-4fadbc5d-6ecb-4949-9011-2c0fd7af3bc9-attr-1-key" class="er entityLabel">PK</text><rect height="22" width="54.095550537109375" y="46" x="0" class="er attributeBoxEven"/><text style="dominant-baseline: middle; font-size: 10.2px;" transform="translate(5,57)" y="0" x="0" id="text-entity-tbldays-4fadbc5d-6ecb-4949-9011-2c0fd7af3bc9-attr-2-type" class="er entityLabel">DateTime</text><rect height="22" width="31.0858154296875" y="46" x="54.095550537109375" class="er attributeBoxEven"/><text style="dominant-baseline: middle; font-size: 10.2px;" transform="translate(59.095550537109375,57)" y="0" x="0" id="text-entity-tbldays-4fadbc5d-6ecb-4949-9011-2c0fd7af3bc9-attr-2-name" class="er entityLabel">date</text><rect height="22" width="22.68768310546875" y="46" x="85.18136596679688" class="er attributeBoxEven"/><text style="dominant-baseline: middle; font-size: 10.2px;" transform="translate(90.18136596679688,57)" y="0" x="0" id="text-entity-tbldays-4fadbc5d-6ecb-4949-9011-2c0fd7af3bc9-attr-2-key" class="er entityLabel"/></g><g transform="translate(310.55789947509766,31 )" id="entity-tbldayshabits-96d46a2b-4447-42ba-b148-8da7d6a03bbc"><rect height="46" width="114.060546875" y="0" x="0" class="er entityBox"/><text style="dominant-baseline: middle; text-anchor: middle; font-size: 12px;" transform="translate(57.0302734375,12)" y="0" x="0" id="text-entity-tbldayshabits-96d46a2b-4447-42ba-b148-8da7d6a03bbc" class="er entityLabel">tbl_days_habits</text><rect height="22" width="49.08546447753906" y="24" x="0" class="er attributeBoxOdd"/><text style="dominant-baseline: middle; font-size: 10.2px;" transform="translate(5,35)" y="0" x="0" id="text-entity-tbldayshabits-96d46a2b-4447-42ba-b148-8da7d6a03bbc-attr-1-type" class="er entityLabel">String</text><rect height="22" width="30.597991943359375" y="24" x="49.08546447753906" class="er attributeBoxOdd"/><text style="dominant-baseline: middle; font-size: 10.2px;" transform="translate(54.08546447753906,35)" y="0" x="0" id="text-entity-tbldayshabits-96d46a2b-4447-42ba-b148-8da7d6a03bbc-attr-1-name" class="er entityLabel">id</text><rect height="22" width="34.37709045410156" y="24" x="79.68345642089844" class="er attributeBoxOdd"/><text style="dominant-baseline: middle; font-size: 10.2px;" transform="translate(84.68345642089844,35)" y="0" x="0" id="text-entity-tbldayshabits-96d46a2b-4447-42ba-b148-8da7d6a03bbc-attr-1-key" class="er entityLabel">PK</text></g><rect height="14" width="27.96875" y="133.108642578125" x="82.7637710571289" class="er relationshipLabelBox"/><text style="text-anchor: middle; dominant-baseline: middle; font-size: 12px;" y="140.108642578125" x="96.7481460571289" id="rel1" class="er relationshipLabel">habit</text><rect height="14" width="19.990234375" y="127.78829956054688" x="400.5364074707031" class="er relationshipLabelBox"/><text style="text-anchor: middle; dominant-baseline: middle; font-size: 12px;" y="134.78829956054688" x="410.5315246582031" id="rel2" class="er relationshipLabel">day</text><rect height="14" width="27.96875" y="124.4276123046875" x="251.70205688476562" class="er relationshipLabelBox"/><text style="text-anchor: middle; dominant-baseline: middle; font-size: 12px;" y="131.4276123046875" x="265.6864318847656" id="rel3" class="er relationshipLabel">habit</text></svg>